<?xml version="1.0" encoding="UTF-8"?>
<svg width="100%" height="100%" viewBox="0 0 422 480" version="1.1" xmlns="http://www.w3.org/2000/svg" xmlns:xlink="http://www.w3.org/1999/xlink">
    <!-- Generator: Sketch 46.2 (44496) - http://www.bohemiancoding.com/sketch -->
    <title>dickbutt</title>
    <desc>Created with Sketch.</desc>
    <defs></defs>
    <g id="Page-1" stroke="none" stroke-width="1" fill="none" fill-rule="evenodd">
        <g id="dickbutt">
            <g id="g10" transform="translate(211.000000, 240.000000) scale(-1, 1) rotate(-180.000000) translate(-211.000000, -240.000000) translate(-0.000000, 0.000000)">
                <g id="g12" transform="translate(0.000000, 0.000000)">
                    <path d="M278.270658,115.373329 C279.111991,121.321329 285.737324,121.494662 289.683991,117.923996 C289.150658,112.302663 281.871991,111.663996 278.270658,115.373329 Z M266.017325,141.479995 C269.262658,146.479995 277.591991,144.409329 278.347991,138.811995 C274.707991,134.690662 267.411991,135.898662 266.017325,141.479995 Z M275.997325,160.221328 C278.694658,163.270661 284.283991,162.635995 284.005324,158.307995 C282.301324,156.541328 282.394658,156.235995 279.430658,156.761328 C276.002658,157.366662 276.655991,158.957328 275.997325,160.221328 L275.997325,160.221328 Z M280.635991,179.609328 C277.819991,187.259994 286.742658,191.766661 289.698657,183.811994 C287.725324,180.435994 284.794658,178.763994 280.635991,179.609328 Z M235.245326,224.983993 C238.605325,226.877326 246.954659,227.063993 245.383992,221.303993 C241.987992,219.39066 234.591992,219.641327 235.245326,224.983993 Z M145.746661,283.983992 C160.571994,288.041325 157.649327,260.887992 157.357327,252.477326 C157.229327,248.747993 157.859994,246.557326 157.427994,242.590659 C156.073328,230.197326 154.607994,235.77466 156.643994,220.811993 C157.225327,216.543993 156.954661,213.151993 157.198661,208.87066 C157.634661,201.27866 159.834661,194.391994 158.385327,186.799994 C157.090661,180.023994 131.681328,161.885328 145.685328,157.661328 C156.363994,154.439995 149.433328,167.915995 158.995994,169.626661 C163.369327,165.133328 162.191994,157.506662 169.227994,159.911995 C174.639994,166.826661 167.042661,166.267995 167.949327,173.826661 C178.96266,182.651994 187.511993,158.853328 195.353327,172.995994 C193.305327,178.809328 189.969327,179.059994 184.517327,180.709328 C172.263994,184.415994 165.439994,188.419994 166.582661,199.471994 C167.507994,208.43066 164.745327,218.28666 167.018661,232.165326 C169.066661,244.663993 166.567994,238.737326 165.826661,247.554659 C165.505327,251.370659 166.647994,259.054659 166.409327,263.189326 C166.118661,268.217325 163.907994,275.254659 165.162661,279.981325 C166.715994,285.831992 171.665327,287.993325 175.887994,282.475992 C179.815994,277.342659 177.587994,271.457325 178.161327,264.811992 C178.915994,256.057326 179.367994,225.423993 178.98666,215.009327 C178.895994,212.515993 177.739994,198.517327 177.78666,198.167994 C179.109327,188.535994 193.121327,188.309327 200.199993,181.878661 C205.01866,177.499994 220.922659,166.385328 206.437326,161.441328 C201.821326,159.865328 193.63066,159.945328 188.799993,160.322661 C174.197327,161.463995 184.00266,143.549329 167.953327,144.118662 C159.718661,144.410662 162.195994,151.226662 153.110661,148.310662 C147.354661,146.463995 144.703994,144.343995 139.117328,148.633328 C122.091995,161.707995 141.045328,178.587994 145.799994,186.035994 C151.526661,195.005327 144.706661,207.387994 146.303994,218.767993 C147.574661,227.827993 147.657328,225.219993 146.573328,234.065326 C145.755994,240.749326 148.326661,245.899993 147.453328,251.191993 C146.130661,259.203992 145.591994,260.339992 146.734661,268.627992 C147.655994,275.311992 142.693328,276.518659 145.746661,283.983992 L145.746661,283.983992 Z M149.603994,413.278655 C167.675994,416.505322 185.80266,397.909322 182.583994,380.053323 C178.781327,358.94799 156.094661,355.55999 140.161328,354.206657 C120.702662,352.554657 103.194662,373.331989 108.247995,386.197322 C110.623995,392.250656 118.547995,400.778655 123.559995,405.061322 C128.881328,409.606655 142.547995,412.019988 149.603994,413.278655 L149.603994,413.278655 Z M74.8533295,390.006656 C79.0399961,390.702656 81.171996,392.715989 85.2413293,394.029322 C89.6226625,395.442656 92.9359958,392.517322 90.0573292,388.446656 C89.4946625,387.651989 83.851996,384.642656 81.9493294,382.887989 C74.4333295,375.954656 61.2759965,367.586656 63.5919965,359.097323 C65.5933298,351.766657 79.4546628,352.702657 85.2199959,354.469323 C85.5226626,361.461323 78.4479961,358.918656 81.4226627,365.293323 C87.5599959,371.77999 97.5386623,363.409323 99.6719956,357.106657 C101.890662,350.553323 87.5066626,342.973324 86.0786626,342.790657 C77.6626628,341.71199 67.2639964,342.34399 59.9253299,346.161323 C49.2639968,351.70799 52.9051968,358.36399 53.7551967,366.90399 C47.6078636,366.054656 55.1546634,365.33999 41.2369304,365.162656 C20.4087976,364.89599 21.9609309,370.357323 18.0750643,343.358657 C16.0702643,329.431991 27.8473307,336.15599 35.4666639,337.653324 C39.5041304,338.446657 44.1890636,336.89999 48.4125302,336.794657 C53.3005301,336.673324 58.7986633,336.86399 63.6906631,336.96399 C77.0519961,337.23199 90.4919958,340.274657 105.027995,340.366657 L131.414661,343.273324 C138.147995,345.021324 139.061328,344.118657 145.229328,344.86399 C152.466661,345.738657 163.606661,350.52399 170.879994,350.09199 C176.74266,344.78799 176.02666,339.55999 167.541327,337.71599 C165.697327,337.314657 156.138661,336.933324 146.167994,334.862657 C142.862661,334.17599 139.974661,333.178657 136.818661,332.446657 C132.637328,331.474657 128.935995,332.142657 125.009328,331.522657 C121.609328,330.986657 119.746662,329.763991 115.757329,329.607991 C111.519995,329.443991 107.505329,329.651991 103.179995,329.345324 C99.1599956,329.059991 96.265329,327.951991 92.4599958,327.867991 C87.8199959,327.766657 86.4213292,329.223991 81.935996,328.106657 C71.8399963,325.594657 47.2859969,325.043991 36.3609305,326.291991 C31.2573306,326.874657 29.8145307,325.393324 25.0895974,325.445324 C21.4197309,325.487991 17.0759976,326.987991 14.7354644,323.506657 C11.5139978,318.718657 14.442131,309.442658 14.878131,304.033325 C15.5130644,296.151991 13.2958644,292.478658 14.5379977,282.745325 C15.5958644,274.459992 12.0639978,269.685325 13.8291977,261.462659 C15.4707977,253.818659 13.5473311,248.274659 16.764531,240.058659 C19.2515976,233.70666 19.2765309,228.19066 21.9483975,221.061327 C24.3083975,214.76266 25.8739974,209.063994 27.9161307,202.76266 C33.1849306,186.509327 51.4239968,152.491995 62.8559965,139.769329 C65.5639964,136.757329 72.2106629,130.481329 75.4906629,128.159996 C80.5266627,124.593329 83.5066627,120.717329 88.5693292,116.983996 C94.3346624,112.730663 114.773329,104.44533 122.147995,102.08133 C128.281328,100.11333 135.971995,99.5173296 142.121328,97.642663 C171.611994,88.6599966 162.390661,93.7746631 172.969327,91.4933298 C176.795994,90.6679965 178.511994,89.7666632 183.089327,89.1146632 C192.98666,87.7039966 195.60266,88.0666633 205.247993,89.8199966 C212.093326,91.0639965 219.087993,92.1573298 225.887992,93.4853298 C241.722659,96.5759964 240.793325,94.4773298 240.361325,64.2442639 C240.261325,57.3229307 242.965325,46.7911976 236.427992,44.140131 C225.799992,39.8291978 208.135993,62.8458639 203.36666,56.695864 C200.881326,47.9739976 210.799993,41.3187978 216.630659,36.5983979 C229.245326,26.3879981 222.905326,30.9458647 236.950659,21.8759983 C252.770658,11.6587985 252.278658,24.9229315 253.461325,32.8026646 C255.227992,44.5911977 251.027992,44.296931 254.093325,65.3119972 C256.795992,83.8411967 245.369325,104.342663 266.962658,98.578663 C271.090658,97.4759964 279.330658,97.4759964 283.798658,97.5359964 C307.469324,97.8453297 324.76399,111.066663 341.64799,125.866662 C345.385323,129.142662 361.806656,150.073328 363.439989,156.179995 C368.225322,174.074661 362.930656,194.357327 347.501323,205.203994 C336.47199,212.957327 303.286657,221.053327 293.646657,220.605327 C284.562658,220.181327 262.461325,214.689327 254.726658,207.415994 C250.427992,203.37466 249.543992,199.993327 242.686659,201.89066 C239.802659,213.80266 254.577325,214.705327 259.511992,220.54666 C260.190658,228.793326 253.074658,226.277326 251.357325,234.133326 C259.169325,241.082659 263.266658,229.699993 278.426658,229.967993 C302.986657,230.40266 314.71999,253.105326 279.406658,250.671993 C259.433325,249.295993 274.175991,251.873326 252.470658,247.299993 C247.695992,246.293326 235.111992,240.587993 231.634659,237.719993 C217.191993,225.80666 226.626659,222.71466 223.174659,215.545327 C217.193326,213.67466 215.351993,217.105327 214.243993,222.717327 C213.242659,227.787993 211.362659,231.597326 210.615993,236.31466 C208.935993,246.926659 208.523993,254.861326 205.843993,265.601325 C201.05066,284.814658 195.851993,333.166657 199.15066,354.593323 C203.07866,380.105323 199.279993,373.866656 199.489326,384.947989 C199.741326,398.330656 204.319993,399.221322 200.321326,414.690655 C197.741326,424.670655 196.229327,430.155988 190.195993,438.706654 C180.013327,453.139987 168.370661,466.671987 148.994661,465.891987 C138.363995,465.463987 129.947995,469.74532 118.350662,467.694654 C104.893329,465.317321 104.711995,466.44132 92.1973291,459.811987 C77.3719961,451.957321 65.4119964,441.845321 54.1739967,429.526655 C43.608797,417.942655 56.34133,417.537322 63.1639965,412.306655 C69.982663,407.081322 73.1053296,397.959989 74.8533295,390.006656 L74.8533295,390.006656 Z" id="path16"></path>
                    <path d="M132.147995,78.6193302 C130.565328,72.7530636 128.379995,69.0619971 127.583995,63.2797306 C126.753328,57.2421307 123.811995,54.4489308 122.470662,48.6030643 C120.874662,41.6535978 114.817329,26.6145315 110.830662,20.7145316 C100.265329,5.07506534 96.6666623,16.1697317 87.9013292,21.9827983 C83.2346627,25.0781315 69.3839963,37.5911979 67.9853297,42.8275977 C66.1786631,49.5978642 70.742663,52.7213308 76.7679962,47.6791976 C105.526662,23.6145315 103.589329,15.3786651 118.082662,66.4723971 C119.722662,72.251597 120.753328,75.2229303 123.683995,80.6087968 C127.618662,87.8413299 134.477328,87.26133 132.147995,78.6193302 Z M401.438655,179.489328 C398.063988,179.443994 397.939988,180.458661 394.490655,180.587994 C392.051988,180.679994 389.643988,180.147994 387.117322,180.293328 C386.090655,180.351994 375.687989,183.766661 374.945322,184.169328 C370.330655,186.666661 366.223989,200.403994 362.542656,204.059994 C327.349323,239.009326 296.493324,218.91466 315.190657,243.085326 C319.914657,249.193326 325.866657,254.926659 328.80799,261.818659 C330.290656,265.293326 332.666656,268.807992 334.57199,272.206659 C338.137323,278.569325 337.217323,276.519992 339.54799,283.529325 C340.526656,286.474658 343.527989,290.722658 345.039989,294.037325 C349.769323,304.401325 353.505323,325.505324 359.953322,328.577324 C374.022655,335.277324 392.263988,313.578658 387.011988,297.885325 C383.890655,288.555992 385.542655,281.222658 380.867989,271.831992 C375.921322,261.893326 379.118655,260.063992 368.938656,251.301326 C367.375989,249.954659 353.225323,235.649326 352.907989,234.95066 C348.775989,225.831993 366.551989,222.669327 371.918655,224.891993 C381.061322,228.677326 384.715988,234.25466 395.682655,229.411993 C394.638655,223.89866 393.309322,218.83466 394.378655,213.397327 C383.022655,211.805327 382.014655,224.375993 372.957322,216.81866 C370.525322,206.023994 390.497322,202.275994 398.563988,201.205327 C403.587988,200.537327 410.478654,199.72266 411.939988,194.077327 C414.617321,183.726661 404.005321,187.625327 401.783988,187.109327 C400.435988,182.913328 401.766655,183.547994 401.438655,179.489328 L401.438655,179.489328 Z M31.149464,375.989323 C33.4426639,380.162656 35.9750638,376.882656 42.277597,382.119989 C55.46933,393.082656 50.5229301,402.414655 53.3750634,404.029322 C58.1746633,406.746655 77.5066628,388.945322 56.3919967,378.750656 C50.1442635,375.733323 41.0442637,368.79599 31.149464,375.989323 Z M205.247993,89.8199966 C195.60266,88.0666633 192.98666,87.7039966 183.089327,89.1146632 C178.511994,89.7666632 176.795994,90.6679965 172.969327,91.4933298 C162.390661,93.7746631 171.611994,88.6599966 142.121328,97.642663 C135.971995,99.5173296 128.281328,100.11333 122.147995,102.08133 C114.773329,104.44533 94.3346624,112.730663 88.5693292,116.983996 C83.5066627,120.717329 80.5266627,124.593329 75.4906629,128.159996 C72.2106629,130.481329 65.5639964,136.757329 62.8559965,139.769329 C51.4239968,152.491995 33.1849306,186.509327 27.9161307,202.76266 C25.8739974,209.063994 24.3083975,214.76266 21.9483975,221.061327 C8.84733119,256.026659 17.4630643,271.935992 14.878131,304.033325 C14.442131,309.442658 11.5139978,318.718657 14.7354644,323.506657 C17.0759976,326.987991 21.4197309,325.487991 25.0895974,325.445324 C29.8145307,325.393324 31.2573306,326.874657 36.3609305,326.291991 C47.2859969,325.043991 71.8399963,325.594657 81.935996,328.106657 C86.4213292,329.223991 87.8199959,327.766657 92.4599958,327.867991 C96.265329,327.951991 99.1599956,329.059991 103.179995,329.345324 C107.505329,329.651991 111.519995,329.443991 115.757329,329.607991 C119.746662,329.763991 121.609328,330.986657 125.009328,331.522657 C128.935995,332.142657 132.637328,331.474657 136.818661,332.446657 C139.974661,333.178657 142.862661,334.17599 146.167994,334.862657 C156.138661,336.933324 165.697327,337.314657 167.541327,337.71599 C176.02666,339.55999 176.74266,344.78799 170.879994,350.09199 C163.606661,350.52399 152.466661,345.738657 145.229328,344.86399 C139.061328,344.118657 138.147995,345.021324 131.414661,343.273324 L105.027995,340.366657 C90.4919958,340.274657 77.0519961,337.23199 63.6906631,336.96399 C58.7986633,336.86399 53.3005301,336.673324 48.4125302,336.794657 C44.1890636,336.89999 39.5041304,338.446657 35.4666639,337.653324 C27.8473307,336.15599 16.0702643,329.431991 18.0750643,343.358657 C21.9609309,370.357323 20.4087976,364.89599 41.2369304,365.162656 C55.1546634,365.33999 47.6078636,366.054656 53.7551967,366.90399 C52.9051968,358.36399 49.2639968,351.70799 59.9253299,346.161323 C67.2639964,342.34399 77.6626628,341.71199 86.0786626,342.790657 C87.5066626,342.973324 101.890662,350.553323 99.6719956,357.106657 C97.5386623,363.409323 87.5599959,371.77999 81.4226627,365.293323 C78.4479961,358.918656 85.5226626,361.461323 85.2199959,354.469323 C79.4546628,352.702657 65.5933298,351.766657 63.5919965,359.097323 C61.2759965,367.586656 74.4333295,375.954656 81.9493294,382.887989 C83.851996,384.642656 89.4946625,387.651989 90.0573292,388.446656 C92.9359958,392.517322 89.6226625,395.442656 85.2413293,394.029322 C81.171996,392.715989 79.0399961,390.702656 74.8533295,390.006656 C73.1053296,397.959989 69.982663,407.081322 63.1639965,412.306655 C56.34133,417.537322 43.608797,417.942655 54.1739967,429.526655 C65.4119964,441.845321 77.3719961,451.957321 92.1973291,459.811987 C104.711995,466.44132 104.893329,465.317321 118.350662,467.694654 C129.947995,469.74532 138.363995,465.463987 148.994661,465.891987 C168.370661,466.671987 180.013327,453.139987 190.195993,438.706654 C196.229327,430.155988 197.741326,424.670655 200.321326,414.690655 C208.35466,383.615989 192.609327,318.643991 205.843993,265.601325 C208.523993,254.861326 208.935993,246.926659 210.615993,236.31466 C211.362659,231.597326 213.242659,227.787993 214.243993,222.717327 C215.351993,217.105327 217.193326,213.67466 223.174659,215.545327 C226.626659,222.71466 217.191993,225.80666 231.634659,237.719993 C235.111992,240.587993 247.695992,246.293326 252.470658,247.299993 C274.175991,251.873326 259.433325,249.295993 279.406658,250.671993 C314.71999,253.105326 302.986657,230.40266 278.426658,229.967993 C263.266658,229.699993 259.169325,241.082659 251.357325,234.133326 C253.074658,226.277326 260.190658,228.793326 259.511992,220.54666 C254.577325,214.705327 239.802659,213.80266 242.686659,201.89066 C249.543992,199.993327 250.427992,203.37466 254.726658,207.415994 C262.461325,214.689327 284.562658,220.181327 293.646657,220.605327 C303.286657,221.053327 336.47199,212.957327 347.501323,205.203994 C362.930656,194.357327 368.225322,174.074661 363.439989,156.179995 C361.806656,150.073328 345.385323,129.142662 341.64799,125.866662 C324.76399,111.066663 307.469324,97.8453297 283.798658,97.5359964 C279.330658,97.4759964 271.090658,97.4759964 266.962658,98.578663 C245.369325,104.342663 256.795992,83.8411967 254.093325,65.3119972 C251.027992,44.296931 255.227992,44.5911977 253.461325,32.8026646 C252.278658,24.9229315 252.770658,11.6587985 236.950659,21.8759983 C222.905326,30.9458647 229.245326,26.3879981 216.630659,36.5983979 C210.799993,41.3187978 200.881326,47.9739976 203.36666,56.695864 C208.135993,62.8458639 225.799992,39.8291978 236.427992,44.140131 C242.965325,46.7911976 240.261325,57.3229307 240.361325,64.2442639 C240.793325,94.4773298 241.722659,96.5759964 225.887992,93.4853298 C219.087993,92.1573298 212.093326,91.0639965 205.247993,89.8199966 L205.247993,89.8199966 Z M376.423989,238.63866 C375.561322,243.582659 383.966655,249.989326 385.891988,255.106659 C388.121322,261.029326 390.826655,269.111992 392.642655,275.190659 C397.671988,292.015991 401.977321,302.030658 394.173322,319.323991 C388.611988,331.650657 375.235989,341.933324 361.495989,340.86799 C342.905323,339.426657 342.502656,325.089324 337.526656,310.569324 C335.16399,303.675991 331.285323,298.306658 328.534657,291.706658 C325.901323,285.385325 324.230657,278.110659 321.14399,272.150659 C308.42799,247.601326 305.03999,262.583992 286.757324,261.638659 C272.065325,260.881326 253.082658,260.685326 239.818659,253.967992 C235.101326,251.578659 227.021326,244.375993 222.835993,250.938659 C220.721326,254.253326 219.086659,267.521325 217.523993,272.881325 C210.521326,296.893325 211.247993,321.594657 211.195993,345.514657 C211.175993,354.77199 213.018659,361.465323 213.259993,369.81999 C213.518659,378.793323 212.859993,384.702656 213.599993,394.301322 C215.747993,422.163988 194.117327,468.10932 160.269327,476.158654 C147.693328,479.147987 124.070662,481.375987 111.562662,479.00132 C87.4119959,474.415987 61.3533299,454.621321 45.3306636,436.570655 C35.4453305,425.434655 31.3145306,417.046655 18.4062643,408.690655 C-1.75466855,395.639989 7.66879788,375.653323 8.2385312,370.073323 C8.84266452,364.157323 5.19586461,354.342657 4.73173129,346.91599 C4.18066464,338.098657 3.38959799,331.357324 1.96093136,322.659991 C-2.96200185,292.685325 2.86826467,254.077326 9.02239785,225.17866 C16.3614643,190.713327 39.9546637,142.378662 65.6613298,119.218662 C78.0279961,108.079996 84.915996,105.406663 98.6293289,97.4199964 C118.597328,85.78933 116.929328,90.9173299 106.730662,67.8619971 C105.159995,64.3078639 100.670662,48.2625309 99.5359956,47.2078643 C94.7239957,42.7363977 87.6946625,52.4562642 82.8306627,55.5655974 C71.3733296,62.8885306 46.1041303,67.1526638 54.4302634,45.0786643 C56.6919967,39.0811978 61.2066632,32.9306646 64.5773298,27.4021314 C66.2026631,24.7379982 101.071996,-11.3270676 113.533329,3.61146538 C120.186662,11.5869318 119.950662,10.9546652 124.378662,20.6843983 C127.507995,27.5593314 128.085328,33.0854646 131.839995,40.0655978 C136.095995,47.9765309 137.513328,49.7145309 140.141328,58.6603973 C149.482661,90.4506632 133.923995,78.2291968 190.359993,76.2426636 C215.839993,75.3458636 224.546659,88.3479966 228.521326,76.2786636 C230.177326,71.248397 229.165326,58.8625307 220.890659,61.5458639 C217.938659,62.5026639 215.446659,64.6463972 212.459993,65.7655972 C206.829326,67.8765304 188.107993,71.058797 186.097327,60.363064 C185.069327,54.8989308 190.499993,48.3650643 193.501327,44.0291977 C200.537326,33.8650646 207.797326,25.9765315 218.905326,20.013065 C226.906659,15.7166651 243.775992,4.11306536 252.291992,4.79013201 C272.318658,6.38226531 262.615992,40.3739978 265.622658,61.6062639 C266.242658,65.9791972 267.143991,80.4363968 268.697325,82.9453301 C271.935991,85.05733 284.461324,83.8275967 290.985324,85.04693 C297.554657,86.2746633 304.029324,87.18533 310.398657,89.7226632 C315.217324,91.6426632 322.234657,95.1786631 326.55199,97.8253297 C343.297323,108.093329 352.373323,119.509329 363.491989,133.689329 C367.447989,138.733329 369.811989,143.110662 373.061322,148.395995 C378.238655,156.815995 371.023989,160.387995 378.959989,166.869328 C383.830655,166.779995 384.217322,167.475995 387.591988,167.017328 C394.445322,166.837328 398.402655,165.985328 404.438655,167.430661 C415.727988,172.443994 423.330654,177.662661 421.649321,191.629327 C416.973321,212.05866 406.119988,205.313327 404.205321,208.257327 C403.283988,209.67866 408.705321,212.73866 411.927988,224.65466 C411.869321,231.29466 409.682654,232.791993 405.829321,238.41466 C389.487988,251.857326 384.347988,234.06666 376.423989,238.63866 L376.423989,238.63866 Z" id="path18" fill="#FFFFFF"></path>
                    <path d="M369.011989,263.661326 C369.875989,254.526659 361.393322,255.843992 359.834656,259.758659 C357.649322,265.247992 363.058656,268.395992 369.011989,263.661326 Z M372.429322,275.927992 C369.933322,280.646658 373.394655,283.761325 377.686655,283.023992 C380.863989,278.099992 378.161322,273.285325 372.429322,275.927992 Z M401.438655,179.489328 C406.558655,181.174661 415.907988,179.858661 411.939988,194.077327 C410.478654,199.72266 403.587988,200.537327 398.563988,201.205327 C390.497322,202.275994 370.525322,206.023994 372.957322,216.81866 C382.014655,224.375993 383.022655,211.805327 394.378655,213.397327 C403.245321,216.915993 406.034655,221.717327 395.682655,229.411993 C384.715988,234.25466 381.061322,228.677326 371.918655,224.891993 C366.551989,222.669327 348.775989,225.831993 352.907989,234.95066 C353.225323,235.649326 367.375989,249.954659 368.938656,251.301326 C379.118655,260.063992 375.921322,261.893326 380.867989,271.831992 C385.542655,281.222658 383.890655,288.555992 387.011988,297.885325 C392.263988,313.578658 374.022655,335.277324 359.953322,328.577324 C353.505323,325.505324 349.769323,304.401325 345.039989,294.037325 C343.527989,290.722658 340.526656,286.474658 339.54799,283.529325 C337.217323,276.519992 338.137323,278.569325 334.57199,272.206659 C332.666656,268.807992 330.290656,265.293326 328.80799,261.818659 C325.866657,254.926659 319.914657,249.193326 315.190657,243.085326 C296.493324,218.91466 327.349323,239.009326 362.542656,204.059994 C366.223989,200.403994 370.330655,186.666661 374.945322,184.169328 C375.687989,183.766661 386.090655,180.351994 387.117322,180.293328 C389.643988,180.147994 392.051988,180.679994 394.490655,180.587994 C397.939988,180.458661 398.063988,179.443994 401.438655,179.489328 L401.438655,179.489328 Z" id="path20"></path>
                    <path d="M145.746661,283.983992 C142.693328,276.518659 147.655994,275.311992 146.734661,268.627992 C144.730661,254.095992 150.027994,192.657327 145.799994,186.035994 C141.045328,178.587994 122.091995,161.707995 139.117328,148.633328 C144.703994,144.343995 147.354661,146.463995 153.110661,148.310662 C162.195994,151.226662 159.718661,144.410662 167.953327,144.118662 C184.00266,143.549329 174.197327,161.463995 188.799993,160.322661 C193.63066,159.945328 201.821326,159.865328 206.437326,161.441328 C220.922659,166.385328 205.01866,177.499994 200.199993,181.878661 C193.121327,188.309327 179.109327,188.535994 177.78666,198.167994 C177.739994,198.517327 178.895994,212.515993 178.98666,215.009327 C179.367994,225.423993 178.915994,256.057326 178.161327,264.811992 C177.587994,271.457325 179.815994,277.342659 175.887994,282.475992 C171.665327,287.993325 166.715994,285.831992 165.162661,279.981325 C163.907994,275.254659 166.118661,268.217325 166.409327,263.189326 C167.393327,246.151993 168.169327,214.817327 166.582661,199.471994 C165.439994,188.419994 172.263994,184.415994 184.517327,180.709328 C189.969327,179.059994 193.305327,178.809328 195.353327,172.995994 C187.511993,158.853328 178.96266,182.651994 167.949327,173.826661 C167.042661,166.267995 174.639994,166.826661 169.227994,159.911995 C162.191994,157.506662 163.369327,165.133328 158.995994,169.626661 C149.433328,167.915995 156.363994,154.439995 145.685328,157.661328 C131.681328,161.885328 157.090661,180.023994 158.385327,186.799994 C159.834661,194.391994 157.634661,201.27866 157.198661,208.87066 C156.255994,225.33866 156.802661,236.405326 157.357327,252.477326 C157.649327,260.887992 160.571994,288.041325 145.746661,283.983992" id="path22" fill="#FFFFFF"></path>
                    <path d="M122.739995,371.43999 C126.193328,373.459989 133.601328,372.987989 138.047995,372.971989 C145.297328,372.945323 144.039994,374.314656 148.190661,379.481323 C150.865328,382.810656 154.997328,385.814656 156.863994,389.694656 C158.906661,393.935989 159.222661,399.002655 162.235994,402.513322 C166.150661,402.173322 168.717327,399.402655 170.979994,396.085322 C173.187994,392.847989 175.553327,390.170656 175.11066,385.983989 C173.469327,370.453323 154.675994,365.205323 140.870661,362.546656 C134.451995,361.310656 125.705328,365.49999 122.739995,371.43999 L122.739995,371.43999 Z M149.603994,413.278655 C142.547995,412.019988 128.881328,409.606655 123.559995,405.061322 C118.547995,400.778655 110.623995,392.250656 108.247995,386.197322 C103.194662,373.331989 120.702662,352.554657 140.161328,354.206657 C156.094661,355.55999 178.781327,358.94799 182.583994,380.053323 C185.80266,397.909322 167.675994,416.505322 149.603994,413.278655 L149.603994,413.278655 Z" id="path24" fill="#FFFFFF"></path>
                    <path d="M132.147995,78.6193302 C134.477328,87.26133 127.618662,87.8413299 123.683995,80.6087968 C120.753328,75.2229303 119.722662,72.251597 118.082662,66.4723971 C103.589329,15.3786651 105.526662,23.6145315 76.7679962,47.6791976 C70.742663,52.7213308 66.1786631,49.5978642 67.9853297,42.8275977 C69.3839963,37.5911979 83.2346627,25.0781315 87.9013292,21.9827983 C96.6666623,16.1697317 100.265329,5.07506534 110.830662,20.7145316 C114.817329,26.6145315 120.874662,41.6535978 122.470662,48.6030643 C123.811995,54.4489308 126.753328,57.2421307 127.583995,63.2797306 C128.379995,69.0619971 130.565328,72.7530636 132.147995,78.6193302" id="path26"></path>
                    <path d="M122.739995,371.43999 C125.705328,365.49999 134.451995,361.310656 140.870661,362.546656 C154.675994,365.205323 173.469327,370.453323 175.11066,385.983989 C175.553327,390.170656 173.187994,392.847989 170.979994,396.085322 C168.717327,399.402655 166.150661,402.173322 162.235994,402.513322 C159.222661,399.002655 158.906661,393.935989 156.863994,389.694656 C154.997328,385.814656 150.865328,382.810656 148.190661,379.481323 C144.039994,374.314656 145.297328,372.945323 138.047995,372.971989 C133.601328,372.987989 126.193328,373.459989 122.739995,371.43999" id="path28"></path>
                    <path d="M31.149464,375.989323 C41.0442637,368.79599 50.1442635,375.733323 56.3919967,378.750656 C77.5066628,388.945322 58.1746633,406.746655 53.3750634,404.029322 C50.5229301,402.414655 55.46933,393.082656 42.277597,382.119989 C35.9750638,376.882656 33.4426639,380.162656 31.149464,375.989323" id="path30"></path>
                </g>
            </g>
        </g>
    </g>
</svg>
